<svg xmlns="http://www.w3.org/2000/svg" width="54.555" height="38.189" viewBox="0 0 54.555 38.189"><defs><style>.a{fill:#f68c41;}</style></defs><path class="a" d="M52.961,19.75l-4.987-4.987a5.457,5.457,0,0,0-3.861-1.594h-3.2V4.978A2.725,2.725,0,0,0,38.189,2.25H2.728A2.725,2.725,0,0,0,0,4.978V33.619a6.8,6.8,0,0,0,12.275,4.058A6.8,6.8,0,0,0,24.55,33.619a7.184,7.184,0,0,0-.136-1.364H38.325a6.552,6.552,0,0,0-.136,1.364,6.819,6.819,0,1,0,13.639,0,7.184,7.184,0,0,0-.136-1.364h1.5a1.368,1.368,0,0,0,1.364-1.364V23.6A5.438,5.438,0,0,0,52.961,19.75ZM6.819,36.347a2.728,2.728,0,1,1,2.728-2.728A2.736,2.736,0,0,1,6.819,36.347Zm10.911,0a2.728,2.728,0,1,1,2.728-2.728A2.736,2.736,0,0,1,17.73,36.347ZM40.916,17.253h3.2a1.354,1.354,0,0,1,.963.4l3.691,3.691H40.916Zm4.092,19.094a2.728,2.728,0,1,1,2.728-2.728A2.736,2.736,0,0,1,45.008,36.347Z" transform="translate(0 -2.25)"/></svg>