<svg xmlns="http://www.w3.org/2000/svg" width="47.285" height="33.775" viewBox="0 0 47.285 33.775"><defs><style>.a{fill:#f68c41;}</style></defs><g transform="translate(-2.25 -6.75)"><path class="a" d="M2.25,6.75V33.77H49.535V6.75ZM19.19,30.393H10.7a5.072,5.072,0,0,0-5.077-5.077V16.883a6.761,6.761,0,0,0,6.755-6.755H19.19A15.759,15.759,0,0,0,15.76,20.26,15.759,15.759,0,0,0,19.19,30.393Zm26.967-5.077a5.1,5.1,0,0,0-5.066,5.077h-8.5a15.759,15.759,0,0,0,3.43-10.133,15.759,15.759,0,0,0-3.43-10.133H39.4a6.761,6.761,0,0,0,6.755,6.755Z"/><path class="a" d="M2.25,27H49.535v3.378H2.25Z" transform="translate(0 10.148)"/></g></svg>